HIERARCHY
ROOT Hips
{
	OFFSET 0.000000 0.000000 0.000000
	CHANNELS 6 Xposition Yposition Zposition Zrotation Yrotation Xrotation 
	JOINT LHipJoint
	{
		OFFSET 0.000000 0.000000 0.000000
		CHANNELS 3 Zrotation Yrotation Xrotation
		JOINT LeftUpLeg
		{
			OFFSET 1.363060 -1.794630 0.839290
			CHANNELS 3 Zrotation Yrotation Xrotation
			JOINT LeftLeg
			{
				OFFSET 2.448110 -6.726130 0.000000
				CHANNELS 3 Zrotation Yrotation Xrotation
				JOINT LeftFoot
				{
					OFFSET 2.562200 -7.039590 0.000000
					CHANNELS 3 Zrotation Yrotation Xrotation
					JOINT LeftToeBase
					{
						OFFSET 0.157640 -0.433110 2.322550
						CHANNELS 3 Zrotation Yrotation Xrotation
						End Site
						{
							OFFSET 0.000000 0.000000 0.000000
						}
					}
				}
			}
		}
	}
	JOINT RHipJoint
	{
		OFFSET 0.000000 0.000000 0.000000
		CHANNELS 3 Zrotation Yrotation Xrotation
		JOINT RightUpLeg
		{
			OFFSET -1.305520 -1.794630 0.839290
			CHANNELS 3 Zrotation Yrotation Xrotation
			JOINT RightLeg
			{
				OFFSET -2.542530 -6.985550 0.000000
				CHANNELS 3 Zrotation Yrotation Xrotation
				JOINT RightFoot
				{
					OFFSET -2.568260 -7.056230 0.000000
					CHANNELS 3 Zrotation Yrotation Xrotation
					JOINT RightToeBase
					{
						OFFSET -0.164730 -0.452590 2.363150
						CHANNELS 3 Zrotation Yrotation Xrotation
						End Site
						{
							OFFSET 0.000000 0.000000 0.000000
						}
					}
				}
			}
		}
	}
	JOINT LowerBack
	{
		OFFSET 0.000000 0.000000 0.000000
		CHANNELS 3 Zrotation Yrotation Xrotation
		JOINT Spine
		{
			OFFSET 0.028270 2.035590 -0.193380
			CHANNELS 3 Zrotation Yrotation Xrotation
			JOINT Spine1
			{
				OFFSET 0.056720 2.048850 -0.042750
				CHANNELS 3 Zrotation Yrotation Xrotation
				JOINT Neck
				{
					OFFSET 0.000000 0.000000 0.000000
					CHANNELS 3 Zrotation Yrotation Xrotation
					JOINT Neck1
					{
						OFFSET -0.054170 1.746240 0.172020
						CHANNELS 3 Zrotation Yrotation Xrotation
						JOINT Head
						{
							OFFSET 0.104070 1.761360 -0.123970
							CHANNELS 3 Zrotation Yrotation Xrotation
							End Site
							{
								OFFSET 0.000000 0.000000 0.000000
							}
						}
					}
				}
				JOINT LeftShoulder
				{
					OFFSET 0.000000 0.000000 0.000000
					CHANNELS 3 Zrotation Yrotation Xrotation
					JOINT LeftArm
					{
						OFFSET 3.362410 1.200890 -0.311210
						CHANNELS 3 Zrotation Yrotation Xrotation
						JOINT LeftForeArm
						{
							OFFSET 4.983000 -0.000000 -0.000000
							CHANNELS 3 Zrotation Yrotation Xrotation
							JOINT LeftHand
							{
								OFFSET 3.483560 -0.000000 -0.000000
								CHANNELS 3 Zrotation Yrotation Xrotation
								JOINT LeftFingerBase
								{
									OFFSET 0.000000 0.000000 0.000000
									CHANNELS 3 Zrotation Yrotation Xrotation
									JOINT LeftHandIndex1
									{
										OFFSET 0.715260 -0.000000 -0.000000
										CHANNELS 3 Zrotation Yrotation Xrotation
										End Site
										{
											OFFSET 0.000000 0.000000 0.000000
										}
									}
								}
								JOINT LThumb
								{
									OFFSET 0.000000 0.000000 0.000000
									CHANNELS 3 Zrotation Yrotation Xrotation
									End Site
									{
										OFFSET 0.000000 0.000000 0.000000
									}
								}
							}
						}
					}
				}
				JOINT RightShoulder
				{
					OFFSET 0.000000 0.000000 0.000000
					CHANNELS 3 Zrotation Yrotation Xrotation
					JOINT RightArm
					{
						OFFSET -3.136600 1.374050 -0.404650
						CHANNELS 3 Zrotation Yrotation Xrotation
						JOINT RightForeArm
						{
							OFFSET -5.241900 -0.000000 -0.000000
							CHANNELS 3 Zrotation Yrotation Xrotation
							JOINT RightHand
							{
								OFFSET -3.444170 -0.000000 -0.000000
								CHANNELS 3 Zrotation Yrotation Xrotation
								JOINT RightFingerBase
								{
									OFFSET 0.000000 0.000000 0.000000
									CHANNELS 3 Zrotation Yrotation Xrotation
									JOINT RightHandIndex1
									{
										OFFSET -0.622530 -0.000000 -0.000000
										CHANNELS 3 Zrotation Yrotation Xrotation
										End Site
										{
											OFFSET 0.000000 0.000000 0.000000
										}
									}
								}
								JOINT RThumb
								{
									OFFSET 0.000000 0.000000 0.000000
									CHANNELS 3 Zrotation Yrotation Xrotation
									End Site
									{
										OFFSET 0.000000 0.000000 0.000000
									}
								}
							}
						}
					}
				}
			}
		}
	}
}
MOTION
Frames: 6
Frame Time: 0.008333
9.898772 16.074369 -4.621445 -157.227078 70.353972 -133.719033 -14.454202 -0.293779 -4.660090 -10.743159 11.017262 -47.134713 4.055587 6.724474 98.742655 3.197963 18.840076 -18.882273 -3.330000 -0.000000 -8.276400 6.898672 -0.837062 2.479280 6.007640 13.571588 -38.823562 1.466757 -2.372652 45.221645 -1.421124 -2.505303 -17.444356 0.679900 0.000000 -68.111700 6.776573 -2.046164 4.064953 0.258021 -2.346993 -2.172001 -7.445296 -2.288829 -0.093970 8.642114 -2.888743 -0.437064 -2.833506 -0.283393 1.757612 0.000000 0.000000 0.000000 -0.409844 6.222450 2.026245 -67.618809 20.152290 24.016777 -1.738894 -47.511741 0.001816 8.537463 0.143213 0.011894 -0.114538 -0.004909 0.000000 0.000000 0.000000 0.000000 0.000000 0.000000 0.000000 7.509603 -1.078898 -3.919076 82.650008 21.546510 19.958866 -0.004506 86.070769 -0.022570 -2.389524 10.486970 -0.228380 -0.014238 -0.512578 -0.000000 0.000000 0.000000 0.000000 0.000000 0.000000 0.000000 
10.068603 16.178269 -4.734429 -158.216185 70.396781 -134.418343 -14.107720 -0.590917 -4.401532 -11.261381 10.140322 -49.175118 3.719625 6.554712 96.825502 3.180819 18.497132 -19.018505 -3.315000 0.000000 -8.381000 7.025394 -0.876742 2.473738 5.343041 13.477569 -37.625036 1.438536 -2.264956 43.709782 -1.347259 -2.559686 -16.113161 0.557600 -0.000000 -69.418600 6.139169 -1.656518 3.847649 0.156448 -1.935313 -2.251775 -7.260691 -1.880730 -0.275552 8.157637 -2.536340 -0.107596 -2.574685 -0.272818 1.851546 0.000000 0.000000 0.000000 -0.615815 6.627017 1.943190 -65.631493 22.082385 26.140733 -1.672870 -50.421806 0.003070 8.287277 -0.206470 -0.013851 -0.118834 -0.008039 0.000000 0.000000 0.000000 0.000000 0.000000 0.000000 0.000000 5.779371 -0.390503 -4.120378 83.142490 23.585821 20.786955 -0.027394 87.445671 -0.021852 -2.043153 10.546099 -0.195712 -0.022509 -0.533627 -0.000000 0.000000 0.000000 0.000000 0.000000 0.000000 0.000000 
10.237984 16.290830 -4.852556 -159.217351 70.444977 -135.116461 -13.748758 -0.871665 -4.131453 -11.709096 9.265305 -51.045764 3.341522 6.360196 94.480340 3.176169 18.196221 -19.041618 -3.269900 0.000000 -8.600800 7.158082 -0.923733 2.451300 4.664665 13.343905 -36.411405 1.399388 -2.160998 42.062537 -1.244392 -2.548634 -14.403203 0.397600 0.000000 -71.011400 5.484349 -1.264553 3.644732 0.052392 -1.517218 -2.325865 -7.071084 -1.466556 -0.435966 7.693361 -2.243955 0.184484 -2.329494 -0.262737 1.934605 0.000000 0.000000 0.000000 -0.802360 7.096073 1.848186 -63.571297 23.746016 28.224329 -1.600119 -53.308745 0.003955 8.047226 -0.419344 -0.028398 -0.123096 -0.010481 0.000000 0.000000 0.000000 0.000000 0.000000 0.000000 0.000000 4.169374 0.222976 -4.311441 83.308598 25.570218 21.360186 -0.049522 88.817860 -0.020953 -1.717209 10.577724 -0.164143 -0.030285 -0.553391 -0.000000 0.000000 0.000000 0.000000 0.000000 0.000000 0.000000 
10.407160 16.411265 -4.975584 -160.256943 70.492806 -135.852625 -13.380617 -1.129443 -3.851131 -12.082949 8.392581 -52.697174 2.927209 6.137736 91.686599 3.184972 17.939816 -18.953166 -3.196000 0.000000 -8.950000 7.298612 -0.977215 2.407053 3.978477 13.153195 -35.159159 1.349849 -2.061140 40.266862 -1.119938 -2.486247 -12.314507 0.210900 -0.000000 -72.769299 4.810098 -0.879172 3.463232 -0.055637 -1.101785 -2.394141 -6.881570 -1.055651 -0.581239 7.255212 -2.011438 0.445369 -2.104757 -0.253576 2.008571 0.000000 0.000000 0.000000 -0.975909 7.540349 1.744896 -61.503968 25.237949 30.144793 -1.523254 -56.127241 0.004490 7.775343 -0.486238 -0.031854 -0.126584 -0.012864 -0.000000 0.000000 0.000000 0.000000 0.000000 0.000000 0.000000 2.720002 0.755844 -4.475255 83.151702 27.496823 21.701068 179.929304 89.873235 179.979996 -1.433596 10.593101 -0.136269 -0.036982 -0.571613 -0.000000 0.000000 0.000000 0.000000 0.000000 0.000000 0.000000 
10.576085 16.537966 -5.103302 -161.345062 70.528975 -136.648938 -13.008666 -1.360146 -3.562467 -12.377054 7.522349 -54.087699 2.484778 5.885141 88.434401 3.205921 17.717219 -18.761753 -3.094100 -0.000000 -9.393000 7.446374 -1.035675 2.335963 3.297011 12.892425 -33.852744 1.290909 -1.966431 38.328976 -0.985641 -2.397846 -9.874373 0.011700 -0.000000 -74.597600 4.118249 -0.511214 3.311657 -0.166090 -0.700309 -2.451321 -6.687499 -0.658975 -0.699294 6.838040 -1.809522 0.665397 -1.898327 -0.244963 2.070452 0.000000 0.000000 0.000000 -1.077611 8.014540 1.645614 -59.527120 26.477759 31.928545 -1.447760 -58.742048 0.004677 7.464811 -0.417359 -0.025819 -0.129414 -0.015298 -0.000000 0.000000 0.000000 0.000000 0.000000 0.000000 0.000000 1.413034 1.234645 -4.616383 82.709920 29.338087 21.799841 179.909491 88.654615 179.980821 -1.198247 10.603594 -0.112996 -0.042854 -0.588222 -0.000000 0.000000 0.000000 0.000000 0.000000 0.000000 0.000000 
10.745114 16.669100 -5.235285 -162.497163 70.544322 -137.528526 -12.637592 -1.559952 -3.265317 -12.590624 6.652497 -55.185506 2.023252 5.599903 84.717044 3.235387 17.506597 -18.465607 -2.959400 0.000001 -9.914800 7.600458 -1.096684 2.236157 2.630758 12.554418 -32.485720 1.223568 -1.877522 36.269964 -0.856022 -2.316867 -7.139929 -0.186600 -0.000000 -76.329900 3.412737 -0.169278 3.191732 -0.278402 -0.322181 -2.497477 -6.490942 -0.285870 -0.794323 6.440125 -1.628815 0.847382 -1.710752 -0.236929 2.121137 0.000000 0.000000 0.000000 -1.101202 8.483415 1.553827 -57.692726 27.536406 33.523697 -1.375126 -61.146632 0.004562 7.105436 -0.238293 -0.012994 -0.131281 -0.017960 -0.000000 0.000000 0.000000 0.000000 0.000000 0.000000 0.000000 0.246282 1.665637 -4.729769 82.021944 31.079181 21.684062 179.892215 87.553971 179.981348 -1.028234 10.611302 -0.096119 -0.047591 -0.603119 -0.000000 0.000000 0.000000 0.000000 0.000000 0.000000 0.000000 
